<svg width="87" height="28" viewBox="0 0 87 28" fill="none" xmlns="http://www.w3.org/2000/svg">
<path fill-rule="evenodd" clip-rule="evenodd" d="M18.2636 8.58405L14.8044 11.2259C14.1696 9.66452 12.6725 8.87064 10.303 8.84758C7.98779 8.82782 6.76908 9.36476 6.65366 10.465C6.57558 11.2161 7.55326 11.7662 9.5867 12.1186C12.6487 12.6226 14.5158 13.0212 15.1846 13.3045C17.1705 14.0984 18.0667 15.3963 17.8766 17.2015C17.6763 19.0956 16.6613 20.5713 14.8282 21.6255C13.1851 22.5742 11.189 23.0452 8.84326 23.0452C4.75261 23.0452 1.80599 22.0339 0 20.008L3.68667 17.6659C4.61343 19.0528 6.36171 19.7445 8.93152 19.7445C9.95333 19.7445 10.8597 19.537 11.6541 19.1186C12.367 18.72 12.7506 18.2819 12.8015 17.7977C12.8796 17.0697 11.9257 16.5295 9.94315 16.1803C6.98295 15.6269 5.14301 15.2118 4.42672 14.9252C2.49173 14.1083 1.61928 12.7906 1.81278 10.9624C2.00289 9.15723 2.9602 7.78029 4.68132 6.83487C6.2429 5.97511 8.26955 5.54688 10.7647 5.54688C14.1322 5.54688 16.6308 6.55817 18.2636 8.58405Z" fill="#3BB8FF"/>
<path fill-rule="evenodd" clip-rule="evenodd" d="M18.0006 5.50391L17.0738 13.8907C17.0568 14.0258 17.0399 14.1608 17.0263 14.2959L16.9991 14.5726L15.5156 27.9994H20.3158L20.9709 22.07C22.2813 22.7223 23.8633 23.0451 25.7134 23.0451C28.6804 23.0451 31.128 22.2084 33.0596 20.5383C34.9097 18.9307 35.9688 16.8488 36.2336 14.2959C36.5018 11.743 35.8772 9.66438 34.3665 8.05685C32.7846 6.38344 30.5135 5.54673 27.5431 5.54673C25.727 5.54673 23.5747 5.94202 22.6004 7.26296L22.8007 5.50391H18.0006ZM22.1523 15.1392L22.339 13.3801C22.5767 12.3886 23.0315 11.5256 23.7071 10.7976C24.6644 9.7632 25.8763 9.24602 27.3428 9.24602C28.8128 9.24602 29.9194 9.7632 30.6697 10.7976C31.3554 11.743 31.627 12.9091 31.4878 14.2959C31.3486 15.6827 30.8428 16.8488 29.967 17.7976C29.0097 18.8319 27.7977 19.3491 26.3278 19.3491C24.8613 19.3491 23.7546 18.8319 23.0044 17.7976C22.4612 17.0498 22.1795 16.1604 22.1523 15.1392Z" fill="white"/>
<path fill-rule="evenodd" clip-rule="evenodd" d="M44.5965 9.24617C43.0655 9.24617 41.7993 9.76334 40.8012 10.7977C39.8881 11.7431 39.3585 12.9092 39.2125 14.2961C39.0665 15.6829 39.3517 16.849 40.0714 17.7977C40.8522 18.832 42.0098 19.3492 43.5408 19.3492C45.0752 19.3492 46.3414 18.832 47.3395 17.7977C48.2527 16.849 48.7822 15.6829 48.9282 14.2961C49.0742 12.9092 48.7856 11.7431 48.0693 10.7977C47.2886 9.76334 46.131 9.24617 44.5965 9.24617ZM44.9835 5.54688C47.9505 5.54688 50.225 6.38358 51.8069 8.05699C53.3176 9.66452 53.9422 11.7431 53.674 14.2961C53.4092 16.849 52.3501 18.9309 50.5 20.5384C48.5718 22.2085 46.1208 23.0452 43.1538 23.0452C40.1868 23.0452 37.9157 22.2085 36.3338 20.5384C34.8231 18.9309 34.1985 16.849 34.4667 14.2961C34.7315 11.7431 35.811 9.64805 37.7019 8.00758C39.5893 6.36711 42.0199 5.54688 44.9835 5.54688Z" fill="#FF4122"/>
<path fill-rule="evenodd" clip-rule="evenodd" d="M51.1328 22.6499H55.933L56.8258 14.5595C57.0125 12.8664 57.3452 11.1732 58.6793 10.3167C59.5415 9.76661 60.4751 9.06496 61.9824 8.85084L62.3015 5.93555C60.2952 6.09037 58.1531 6.60755 57.6303 7.28943L57.7797 5.94214H52.9795L51.1328 22.6499Z" fill="#F3D91B"/>
<path fill-rule="evenodd" clip-rule="evenodd" d="M86.986 7.68216L86.6669 10.5052C86.6262 10.8906 86.6601 11.1904 86.7756 11.4045H85.3599C85.2853 11.276 85.2615 11.1146 85.2819 10.917C84.7082 11.3255 84.0835 11.5297 83.4012 11.5297C82.858 11.5297 82.4269 11.3749 82.101 11.0685C81.7785 10.7622 81.6427 10.357 81.7004 9.84969C81.8023 8.9471 82.4303 8.39039 83.5811 8.17957L84.1514 8.07416C84.535 8.00498 85.0307 7.89957 85.6383 7.75792L85.6553 7.59981C85.7062 7.14851 85.3803 6.92451 84.6776 6.92451C84.2906 6.92451 84.0122 6.9838 83.8493 7.10239C83.6863 7.22098 83.5879 7.42851 83.554 7.72498L82.2198 7.67228C82.2877 7.08922 82.5797 6.64122 83.0957 6.33157C83.5506 6.06475 84.1141 5.92969 84.7896 5.92969C85.5127 5.92969 86.0525 6.03181 86.4021 6.23604C86.8706 6.50945 87.0641 6.99369 86.986 7.68216ZM85.4414 9.49063L85.5297 8.72969C85.3735 8.79886 85.1563 8.86475 84.8711 8.92075L84.1175 9.06898C83.8018 9.13157 83.5777 9.20404 83.4453 9.28969C83.2484 9.40169 83.1364 9.57628 83.1126 9.80686C83.0889 10.0045 83.1534 10.1659 83.3061 10.2878C83.4555 10.413 83.6558 10.4723 83.9036 10.4723C84.2634 10.4723 84.5859 10.3965 84.8745 10.2417C85.2174 10.0572 85.4075 9.80686 85.4414 9.49063Z" fill="white"/>
<path fill-rule="evenodd" clip-rule="evenodd" d="M81.153 6.05859L80.5521 11.4049H79.2112L79.2723 10.8746C78.8684 11.3127 78.3116 11.5301 77.5953 11.5301C77.0216 11.5301 76.5735 11.4049 76.2578 11.1513C75.8538 10.8186 75.6909 10.3014 75.769 9.59648L76.1695 6.05859H77.5071L77.1506 9.22754C77.0725 9.93248 77.3611 10.2849 78.0197 10.2849C78.4814 10.2849 78.8446 10.14 79.1128 9.85012C79.3232 9.60965 79.4489 9.3033 79.4896 8.93106L79.8155 6.05859H81.153Z" fill="white"/>
<path fill-rule="evenodd" clip-rule="evenodd" d="M70.875 8.86195L71.1975 5.94336H74.0695L73.747 8.86195H70.875Z" fill="#25BB1E"/>
<path fill-rule="evenodd" clip-rule="evenodd" d="M65.5376 5.94259C66.0943 2.05224 68.1379 0.678588 70.9929 0L69.0817 17.3007C69.0002 18.0287 69.0783 18.5327 69.3057 18.8193C69.5841 19.1718 70.1544 19.3496 71.0201 19.3496L73.1655 19.152L72.7989 22.4527C71.2509 22.7162 69.9643 22.848 68.9391 22.848C65.4256 22.848 63.8165 21.5073 64.1118 18.8193L65.2151 8.848H61.8984L62.2209 5.94259H65.5376Z" fill="#25BB1E"/>
</svg>
